/* XPM */
static char *result[] = {
/* columns rows colors chars-per-pixel */
"64 64 40 1 ",
"  c #2A181C",
". c #770000",
"X c #5C2A00",
"o c #4C3836",
"O c #52451B",
"+ c gray26",
"@ c #555556",
"# c #785749",
"$ c #705553",
"% c #6D6D6E",
"& c #777779",
"* c #AE0000",
"= c #FF2122",
"- c #974E00",
"; c #8C5E49",
": c #9E704B",
"> c #A87F5D",
", c #907873",
"< c #C89E00",
"1 c #E4B800",
"2 c gold",
"3 c #FFFC00",
"4 c #D8916E",
"5 c #135487",
"6 c #236EA0",
"7 c #238ECC",
"8 c #868688",
"9 c #938B8D",
"0 c #98989A",
"q c #A08882",
"w c #B99E93",
"e c #B8A19A",
"r c #B8B8BC",
"t c #EFBF94",
"y c #FFE2B0",
"u c #DADADA",
"i c #DADADE",
"p c gray95",
"a c white",
"s c None",
/* pixels */
"ssssssssssssssssssssssssssssssssssssssssssssssssssssssssssssssss",
"ssssssssssssssssssssssssssssssssssssssssssssssssssssssssssssssss",
"ssssssssssssssssssssssssssssssssssssssssssssssssssssssssssssssss",
"ssssssssssssssssssssssssssssssssssssssssssssssssssssssssssssssss",
"ssssssssssssssssssssssssssssssssssssssssssssssssssssssssssssssss",
"ssssssssssssssssssssssssssssssssssssssssssssssssssssssssssssssss",
"ssssssssssssssssssssssssssssssssssssssssssssssssssssssssssssssss",
"ssssssssssssssssssssssssssssssssssssssssssssssssssssssssssssssss",
"ssssssssssssssssssssssssssssssssssssssssssssssssssssssssssssssss",
"ssssssssssssssssssssssssssssssssssssssssssssssssssssssssssssssss",
"ssssssssssssssssssssssssssssssssssssssssssssssssssssssssssssssss",
"ssssssssssssssssssssssssssssssssssssssssssssssssssssssssssssssss",
"ssssssssssssssssssssssssssssssssssssssssssssssssssssssssssssssss",
"ssssssssssssssssssssssssssssssssssssssssssssssssssssssssssssssss",
"ssssssssssssssssssssssssssssssssssssssssssssssssssssssssssssssss",
"ssssssssssssssssssssssssssssssssssssssssssssssssssssssssssssssss",
"sssssssssssssssssssssssssoooosssoooossssssssssssssssssssssssssss",
"sssssssssssssssssssssssssso,$ooo$,$oooooosssssssssssssssssssssss",
"ssssssssssssssssssssssoooooo,,$,,$oe,,$ossssssssssssssssssssssss",
"ssssssssssssssssssssssso$,e$$,,e$,e,$$ooosssssssssssssssssssssss",
"ssssssssssssssssssssssooo$,e,,e,,,,,,,,,$ossssssssssssssssssssss",
"ssssssssssssssssssssso$,,,,,,,,,,,,e,,$oosssssssssssssssssssssss",
"sssssssssssssssssssso$,$,e,,,e,,,,$,e,,,$ossssssssssssssssssssss",
"sssssssssssssssssssoooo,e,,.,ee$,e,$,$$,,$osssssssssssssssssssss",
"ssssssssssssssssssssso,$e,$*$,e$,e,*$,.*o,$ossssssssssssssssssss",
"sssssssssssssssssssso$$o,,.=*,,*,,,=*$*=.oosssssssssssssssssssss",
"sssssssssssssssssssso$oO$,*==$,=$,$=*..*.$osssssssssssssssssssss",
"sssssssssssssssssssssosOt$tyyy$y$$$$,$$=*$$ossssssssssssssssssss",
"sssssssssssssssssssssssOttyOOOyy,$$$,,$=**$ossssssssssssssssssss",
"sssssssssssssssssssssssOtyyi uyy,,ty,,,==*oossssssssssssssssssss",
"sssssssssssssssssssssssOtyy9 pyy,t:y,,,==*oossssssssssssssssssss",
"sssssssssssssssssssssssO4yyXXayy,y:t$,,==*osssssssssssssssssssss",
"sssssssssssssssssssssssO:ty--yyy,t4O$,$==*osssssssssssssssssssss",
"ssssssssssssssssssssssssO4tyyyyyt44$$$$*=*.sssssssssssssssssssss",
"sssssssssssssssssssssssssO:44ttt44:$o$o*=*.sssssssssssssssssssss",
"ssssssssssssssssssssssssssOOOOOOO&&o&os*=..sssssssssssssssssssss",
"ssssssssssssssssssssssssss&riiaaaairr&s...ssssssssssssssssssssss",
"sssssssssssssssssssssssssO<1aaairrirrr&sssssssssssssssssssssssss",
"ssssssssssssssssssssssssssO26ai7+&0&&r&sssssssssssssssssssssssss",
"ssssssssssssssssssssssssss+26777Owwq&ir&ssssssssssssssssssssssss",
"ssssssssssssssssssssssssss+8;;;;O;>;&ai&ssssssssssssssssssssssss",
"ssssssssssssssssssssssssss+@5677O>>;&air&sssssssssssssssssssssss",
"ssssssssssssssssssssssssssO<@%%%O>>#&air&sssssssssssssssssssssss",
"sssssssssssssssssssssssssssO<2332OOO&air&sssssssssssssssssssssss",
"ssssssssssssssssssssssssssssOOwwqqOs&air&sssssssssssssssssssssss",
"sssssssssssssssssssssssssssssO;>;#Os&ar&ssssssssssssssssssssssss",
"sssssssssssssssssssssssssssssO>>;#Oss&&sssssssssssssssssssssssss",
"ssssssssssssssssssssssssssssssOOOOssssssssssssssssssssssssssssss",
"ssssssssssssssssssssssssssssssssssssssssssssssssssssssssssssssss",
"ssssssssssssssssssssssssssssssssssssssssssssssssssssssssssssssss",
"ssssssssssssssssssssssssssssssssssssssssssssssssssssssssssssssss",
"ssssssssssssssssssssssssssssssssssssssssssssssssssssssssssssssss",
"ssssssssssssssssssssssssssssssssssssssssssssssssssssssssssssssss",
"ssssssssssssssssssssssssssssssssssssssssssssssssssssssssssssssss",
"ssssssssssssssssssssssssssssssssssssssssssssssssssssssssssssssss",
"ssssssssssssssssssssssssssssssssssssssssssssssssssssssssssssssss",
"ssssssssssssssssssssssssssssssssssssssssssssssssssssssssssssssss",
"ssssssssssssssssssssssssssssssssssssssssssssssssssssssssssssssss",
"ssssssssssssssssssssssssssssssssssssssssssssssssssssssssssssssss",
"ssssssssssssssssssssssssssssssssssssssssssssssssssssssssssssssss",
"ssssssssssssssssssssssssssssssssssssssssssssssssssssssssssssssss",
"ssssssssssssssssssssssssssssssssssssssssssssssssssssssssssssssss",
"ssssssssssssssssssssssssssssssssssssssssssssssssssssssssssssssss",
"ssssssssssssssssssssssssssssssssssssssssssssssssssssssssssssssss"
};
