/* XPM */
static char *result[] = {
/* columns rows colors chars-per-pixel */
"64 64 41 1 ",
"  c #2A181C",
". c #2E2E31",
"X c #770000",
"o c #5C2A00",
"O c #4C3836",
"+ c #52451B",
"@ c gray26",
"# c #555556",
"$ c #785749",
"% c #705553",
"& c #6D6D6E",
"* c #777779",
"= c #AE0000",
"- c #FF2122",
"; c #974E00",
": c #8C5E49",
"> c #9E704B",
", c #A87F5D",
"< c #907873",
"1 c #C89E00",
"2 c #E4B800",
"3 c gold",
"4 c #FFFC00",
"5 c #D8916E",
"6 c #135487",
"7 c #236EA0",
"8 c #238ECC",
"9 c #868688",
"0 c #938B8D",
"q c #98989A",
"w c #A08882",
"e c #B99E93",
"r c #B8A19A",
"t c #B8B8BC",
"y c #EFBF94",
"u c #FFE2B0",
"i c #DADADA",
"p c #DADADE",
"a c gray95",
"s c white",
"d c None",
/* pixels */
"dddddddddddddddddddddddddddddddddddddddddddddddddddddddddddddddd",
"dddddddddddddddddddddddddddddddddddddddddddddddddddddddddddddddd",
"dddddddddddddddddddddddddddddddddddddddddddddddddddddddddddddddd",
"dddddddddddddddddddddddddddddddddddddddddddddddddddddddddddddddd",
"dddddddddddddddddddddddddddddddddddddddddddddddddddddddddddddddd",
"dddddddddddddddddddddddddddddddddddddddddddddddddddddddddddddddd",
"dddddddddddddddddddddddddddddddddddddddddddddddddddddddddddddddd",
"dddddddddddddddddddddddddddddddddddddddddddddddddddddddddddddddd",
"dddddddddddddddddddddddddddddddddddddddddddddddddddddddddddddddd",
"dddddddddddddddddddddddddddddddddddddddddddddddddddddddddddddddd",
"dddddddddddddddddddddddddddddddddddddddddddddddddddddddddddddddd",
"dddddddddddddddddddddddddddddddddddddddddddddddddddddddddddddddd",
"dddddddddddddddddddddddddddddddddddddddddddddddddddddddddddddddd",
"dddddddddddddddddddddddddddddddddddddddddddddddddddddddddddddddd",
"dddddddddddddddddddddddddddddddddddddddddddddddddddddddddddddddd",
"dddddddddddddddddddddddddddddddddddddddddddddddddddddddddddddddd",
"dddddddddddddddddddddddddOOOOdddOOOOdddddddddddddddddddddddddddd",
"ddddddddddddddddddddddddddO<%OOOr<%OOOOOOddddddddddddddddddddddd",
"ddddddddddddddddddddddOOOOO%<<%r<%O<<%OOdddddddddddddddddddddddd",
"dddddddddddddddddddddddO%<%O%r<<%<<r<<%OOOdddddddddddddddddddddd",
"ddddddddddddddddddddddOOO%<<<<r<<<r<%Or<<%Oddddddddddddddddddddd",
"dddddddddddddddddddddO%<<<rr<<<<<<<<<r<%OOdddddddddddddddddddddd",
"ddddddddddddddddddddO%O%<<<<<<<r<<r<<<%<<%Oddddddddddddddddddddd",
"dddddddddddddddddddOOO%<r<<<r<rr<X%r<<<%<<%Odddddddddddddddddddd",
"dddddddddddddddddddddO<r<<<r<%r<%=X<<Xr<%O<%Oddddddddddddddddddd",
"ddddddddddddddddddddO%<<%<%<<X<<=-=%<X<r%%OOdddddddddddddddddddd",
"ddddddddddddddddddddO<<%<<X<%=<%---=<X%<%<Oddddddddddddddddddddd",
"dddddddddddddddddddO<%%<<%y%uu%uuuuy%y%<%%<Odddddddddddddddddddd",
"dddddddddddddddddddOO+%<%y+++uuuuu+++y5%5O%Odddddddddddddddddddd",
"dddddddddddddddddddOd+%<%yi puuuuup iy5%5+OOdddddddddddddddddddd",
"dddddddddddddddddddddO+%>ya 0uuuuu0 ay>%+OdOdddddddddddddddddddd",
"dddddddddddddddddddddO%%>ysoouuuuuoosy>%%Odddddddddddddddddddddd",
"dddddddddddddddddddddO%O+5y;;uuuuu;;y5+O%Odddddddddddddddddddddd",
"ddddddddddddddddddddddO**+5yuuuuuuuy5+**Oddddddddddddddddddddddd",
"dddddddddddddddddddddd@*tt+>5yyyyy5>+tt*@ddddddddddddddddddddddd",
"ddddddddddddddddddddd@qttpt+++++++++tpttq@dddddddddddddddddddddd",
"ddddddddddddddddddddd@*pq9psspt*tpssp9qp*@dddddddddddddddddddddd",
"ddddddddddddddddddddd.@##.6pss212ssp6.##@.dddddddddddddddddddddd",
"ddddddddddddddddddddd+w&@.67s88488s76.@&w+dddddddddddddddddddddd",
"dddddddddddddddddddd+:,e..$678838876$..e,:+ddddddddddddddddddddd",
"dddddddddddddddddddd+,,:.@6$::999::$6@.:,,+ddddddddddddddddddddd",
"dddddddddddddddddddd+::+.@#788&4&887#@.+::+ddddddddddddddddddddd",
"ddddddddddddddddddddd++s+1##&&4#4&&##1+s++dddddddddddddddddddddd",
"ddddddddddddddddddddd*ss*+1334@@@4331+*ss*dddddddddddddddddddddd",
"ddddddddddddddddddddd*ss**+wew+++wew+**ss*dddddddddddddddddddddd",
"dddddddddddddddddddddd*s*d+:,$+d+$,:+d*s*ddddddddddddddddddddddd",
"ddddddddddddddddddddddd*dd+,,:+d+:,,+dd*dddddddddddddddddddddddd",
"ddddddddddddddddddddddddddd+++ddd+++dddddddddddddddddddddddddddd",
"dddddddddddddddddddddddddddddddddddddddddddddddddddddddddddddddd",
"dddddddddddddddddddddddddddddddddddddddddddddddddddddddddddddddd",
"dddddddddddddddddddddddddddddddddddddddddddddddddddddddddddddddd",
"dddddddddddddddddddddddddddddddddddddddddddddddddddddddddddddddd",
"dddddddddddddddddddddddddddddddddddddddddddddddddddddddddddddddd",
"dddddddddddddddddddddddddddddddddddddddddddddddddddddddddddddddd",
"dddddddddddddddddddddddddddddddddddddddddddddddddddddddddddddddd",
"dddddddddddddddddddddddddddddddddddddddddddddddddddddddddddddddd",
"dddddddddddddddddddddddddddddddddddddddddddddddddddddddddddddddd",
"dddddddddddddddddddddddddddddddddddddddddddddddddddddddddddddddd",
"dddddddddddddddddddddddddddddddddddddddddddddddddddddddddddddddd",
"dddddddddddddddddddddddddddddddddddddddddddddddddddddddddddddddd",
"dddddddddddddddddddddddddddddddddddddddddddddddddddddddddddddddd",
"dddddddddddddddddddddddddddddddddddddddddddddddddddddddddddddddd",
"dddddddddddddddddddddddddddddddddddddddddddddddddddddddddddddddd",
"dddddddddddddddddddddddddddddddddddddddddddddddddddddddddddddddd"
};
