/* XPM */
static char *result[] = {
/* columns rows colors chars-per-pixel */
"64 64 40 1 ",
"  c #2A181C",
". c #770000",
"X c #5C2A00",
"o c #4C3836",
"O c #52451B",
"+ c gray26",
"@ c #555556",
"# c #785749",
"$ c #705553",
"% c #6D6D6E",
"& c #777779",
"* c #AE0000",
"= c #FF2122",
"- c #974E00",
"; c #8C5E49",
": c #9E704B",
"> c #A87F5D",
", c #907873",
"< c #C89E00",
"1 c #E4B800",
"2 c gold",
"3 c #FFFC00",
"4 c #D8916E",
"5 c #135487",
"6 c #236EA0",
"7 c #238ECC",
"8 c #868688",
"9 c #938B8D",
"0 c #98989A",
"q c #A08882",
"w c #B99E93",
"e c #B8A19A",
"r c #B8B8BC",
"t c #EFBF94",
"y c #FFE2B0",
"u c #DADADA",
"i c #DADADE",
"p c gray95",
"a c white",
"s c None",
/* pixels */
"ssssssssssssssssssssssssssssssssssssssssssssssssssssssssssssssss",
"ssssssssssssssssssssssssssssssssssssssssssssssssssssssssssssssss",
"ssssssssssssssssssssssssssssssssssssssssssssssssssssssssssssssss",
"ssssssssssssssssssssssssssssssssssssssssssssssssssssssssssssssss",
"ssssssssssssssssssssssssssssssssssssssssssssssssssssssssssssssss",
"ssssssssssssssssssssssssssssssssssssssssssssssssssssssssssssssss",
"ssssssssssssssssssssssssssssssssssssssssssssssssssssssssssssssss",
"ssssssssssssssssssssssssssssssssssssssssssssssssssssssssssssssss",
"ssssssssssssssssssssssssssssssssssssssssssssssssssssssssssssssss",
"ssssssssssssssssssssssssssssssssssssssssssssssssssssssssssssssss",
"ssssssssssssssssssssssssssssssssssssssssssssssssssssssssssssssss",
"ssssssssssssssssssssssssssssssssssssssssssssssssssssssssssssssss",
"ssssssssssssssssssssssssssssssssssssssssssssssssssssssssssssssss",
"ssssssssssssssssssssssssssssssssssssssssssssssssssssssssssssssss",
"ssssssssssssssssssssssssssssssssssssssssssssssssssssssssssssssss",
"ssssssssssssssssssssssssssssssssssssssssssssssssssssssssssssssss",
"ssssssssssssssssssssssssssssoooosssoooosssssssssssssssssssssssss",
"sssssssssssssssssssssssoooooo$,$ooo$,ossssssssssssssssssssssssss",
"sssssssssssssssssssssssso$,,eo$,,$,,oooooossssssssssssssssssssss",
"sssssssssssssssssssssssooo$$,e,$e,,$$e,$osssssssssssssssssssssss",
"sssssssssssssssssssssso$,,,,,,,,,e,,e,$ooossssssssssssssssssssss",
"sssssssssssssssssssssssoo$,,e,,,,,,,,,,,,$osssssssssssssssssssss",
"sssssssssssssssssssssso$,,,e,$,,,,e,,,e,$,$ossssssssssssssssssss",
"ssssssssssssssssssssso$,,$$,$,e,$ee,.,,e,oooosssssssssssssssssss",
"sssssssssssssssssssso$,o*.,$*,e,$e,$*$,e$,osssssssssssssssssssss",
"sssssssssssssssssssssoo.=*$*=,,,*,,*=.,,o$$ossssssssssssssssssss",
"ssssssssssssssssssssso$.*..*=$,$=,$==*,$Oo$ossssssssssssssssssss",
"sssssssssssssssssssso$$*=$$,$$$$y$yyyt$tOsosssssssssssssssssssss",
"sssssssssssssssssssso$**=$,,$$$,yyOOOyttOsssssssssssssssssssssss",
"ssssssssssssssssssssoo*==,,,yt,,yyu iyytOsssssssssssssssssssssss",
"ssssssssssssssssssssoo*==,,,y:t,yyp 9yytOsssssssssssssssssssssss",
"ssssssssssssssssssssso*==,,$t:y,yyaXXyy4Osssssssssssssssssssssss",
"ssssssssssssssssssssso*==$,$O4t,yyy--yt:Osssssssssssssssssssssss",
"sssssssssssssssssssss.*=*$$$$44tyyyyyt4Ossssssssssssssssssssssss",
"sssssssssssssssssssss.*=*o$o$:44ttt44:Osssssssssssssssssssssssss",
"sssssssssssssssssssss..=*so&o&&OOOOOOOssssssssssssssssssssssssss",
"ssssssssssssssssssssss...s&rriaaaaiir&ssssssssssssssssssssssssss",
"sssssssssssssssssssssssss&rrrirriaaa1<Osssssssssssssssssssssssss",
"ssssssssssssssssssssssss&&r&&0&+7ia62Ossssssssssssssssssssssssss",
"sssssssssssssssssssssss&&ri&qwwO77762+ssssssssssssssssssssssssss",
"sssssssssssssssssssssss&&ia&;>;O;;;;8+ssssssssssssssssssssssssss",
"ssssssssssssssssssssss&&ria&;>>O7765@+ssssssssssssssssssssssssss",
"ssssssssssssssssssssss&&ria&#>>O%%%@<Ossssssssssssssssssssssssss",
"ssssssssssssssssssssss&&ria&OOO2332<Osssssssssssssssssssssssssss",
"ssssssssssssssssssssss&&ria&sOqqwwOOssssssssssssssssssssssssssss",
"sssssssssssssssssssssss&&ra&sO#;>;Osssssssssssssssssssssssssssss",
"ssssssssssssssssssssssss&&&ssO#;>>Osssssssssssssssssssssssssssss",
"ssssssssssssssssssssssssssssssOOOOssssssssssssssssssssssssssssss",
"ssssssssssssssssssssssssssssssssssssssssssssssssssssssssssssssss",
"ssssssssssssssssssssssssssssssssssssssssssssssssssssssssssssssss",
"ssssssssssssssssssssssssssssssssssssssssssssssssssssssssssssssss",
"ssssssssssssssssssssssssssssssssssssssssssssssssssssssssssssssss",
"ssssssssssssssssssssssssssssssssssssssssssssssssssssssssssssssss",
"ssssssssssssssssssssssssssssssssssssssssssssssssssssssssssssssss",
"ssssssssssssssssssssssssssssssssssssssssssssssssssssssssssssssss",
"ssssssssssssssssssssssssssssssssssssssssssssssssssssssssssssssss",
"ssssssssssssssssssssssssssssssssssssssssssssssssssssssssssssssss",
"ssssssssssssssssssssssssssssssssssssssssssssssssssssssssssssssss",
"ssssssssssssssssssssssssssssssssssssssssssssssssssssssssssssssss",
"ssssssssssssssssssssssssssssssssssssssssssssssssssssssssssssssss",
"ssssssssssssssssssssssssssssssssssssssssssssssssssssssssssssssss",
"ssssssssssssssssssssssssssssssssssssssssssssssssssssssssssssssss",
"ssssssssssssssssssssssssssssssssssssssssssssssssssssssssssssssss",
"ssssssssssssssssssssssssssssssssssssssssssssssssssssssssssssssss"
};
