/* XPM */
static char *result[] = {
/* columns rows colors chars-per-pixel */
"64 64 18 1 ",
"  c #2E2E31",
". c #770000",
"X c #4C3836",
"o c #52451B",
"O c gray26",
"+ c #705553",
"@ c #777779",
"# c #AE0000",
"$ c #FF2122",
"% c #8C5E49",
"& c #907873",
"* c #98989A",
"= c #A08882",
"- c #B8A19A",
"; c #B8B8BC",
": c #DADADE",
"> c white",
", c None",
/* pixels */
",,,,,,,,,,,,,,,,,,,,,,,,,,,,,,,,,,,,,,,,,,,,,,,,,,,,,,,,,,,,,,,,",
",,,,,,,,,,,,,,,,,,,,,,,,,,,,,,,,,,,,,,,,,,,,,,,,,,,,,,,,,,,,,,,,",
",,,,,,,,,,,,,,,,,,,,,,,,,,,,,,,,,,,,,,,,,,,,,,,,,,,,,,,,,,,,,,,,",
",,,,,,,,,,,,,,,,,,,,,,,,,,,,,,,,,,,,,,,,,,,,,,,,,,,,,,,,,,,,,,,,",
",,,,,,,,,,,,,,,,,,,,,,,,,,,,,,,,,,,,,,,,,,,,,,,,,,,,,,,,,,,,,,,,",
",,,,,,,,,,,,,,,,,,,,,,,,,,,,,,,,,,,,,,,,,,,,,,,,,,,,,,,,,,,,,,,,",
",,,,,,,,,,,,,,,,,,,,,,,,,,,,,,,,,,,,,,,,,,,,,,,,,,,,,,,,,,,,,,,,",
",,,,,,,,,,,,,,,,,,,,,,,,,,,,,,,,,,,,,,,,,,,,,,,,,,,,,,,,,,,,,,,,",
",,,,,,,,,,,,,,,,,,,,,,,,,,,,,,,,,,,,,,,,,,,,,,,,,,,,,,,,,,,,,,,,",
",,,,,,,,,,,,,,,,,,,,,,,,,,,,,,,,,,,,,,,,,,,,,,,,,,,,,,,,,,,,,,,,",
",,,,,,,,,,,,,,,,,,,,,,,,,,,,,,,,,,,,,,,,,,,,,,,,,,,,,,,,,,,,,,,,",
",,,,,,,,,,,,,,,,,,,,,,,,,,,,,,,,,,,,,,,,,,,,,,,,,,,,,,,,,,,,,,,,",
",,,,,,,,,,,,,,,,,,,,,,,,,,,,,,,,,,,,,,,,,,,,,,,,,,,,,,,,,,,,,,,,",
",,,,,,,,,,,,,,,,,,,,,,,,,,,,,,,,,,,,,,,,,,,,,,,,,,,,,,,,,,,,,,,,",
",,,,,,,,,,,,,,,,,,,,,,,,,,,,,,,,,,,,,,,,,,,,,,,,,,,,,,,,,,,,,,,,",
",,,,,,,,,,,,,,,,,,,,,,,,,,,,,,,,,,,,,,,,,,,,,,,,,,,,,,,,,,,,,,,,",
",,,,,,,,,,,,,,,,,,,,,,,,,,,XXXX,,,XXXX,,,,,,,,,,,,,,,,,,,,,,,,,,",
",,,,,,,,,,,,,,,,,,,,,,XXXXXX+&-XXX+&X,,,,,,,,,,,,,,,,,,,,,,,,,,,",
",,,,,,,,,,,,,,,,,,,,,,,XX+&&X+&-+-&+XXXXX,,,,,,,,,,,,,,,,,,,,,,,",
",,,,,,,,,,,,,,,,,,,,,XXX+&&-&&+&&&+X+&+X,,,,,,,,,,,,,,,,,,,,,,,,",
",,,,,,,,,,,,,,,,,,,,X+&&&X+&-&&&&&--&+XXX,,,,,,,,,,,,,,,,,,,,,,,",
",,,,,,,,,,,,,,,,,,,,,XX+&&&&&&&++&&&-&&&+X,,,,,,,,,,,,,,,,,,,,,,",
",,,,,,,,,,,,,,,,,,,,X+&&+&&&-&&&&+&&&&&+X+X,,,,,,,,,,,,,,,,,,,,,",
",,,,,,,,,,,,,,,,,,,X+&&+-&&--&&-&&-&&&-&+XXX,,,,,,,,,,,,,,,,,,,,",
",,,,,,,,,,,,,,,,,,X+&X+-&+&-&&&--+&-&&&-&X,,,,,,,,,,,,,,,,,,,,,,",
",,,,,,,,,,,,,,,,,,,XX++&&+&&&+&-&+&-+&+&&+X,,,,,,,,,,,,,,,,,,,,,",
",,,,,,,,,,,,,,,,,,,,X&+&++&&+++&&+&&+&&+&&X,,,,,,,,,,,,,,,,,,,,,",
",,,,,,,,,,,,,,,,,,,X&+++.+&+.##&&.+&+&&.++&X,,,,,,,,,,,,,,,,,,,,",
",,,,,,,,,,,,,,,,,,,X+X+..++.#.$&+..+.+&.+XXX,,,,,,,,,,,,,,,,,,,,",
",,,,,,,,,,,,,,,,,,,XXX++..+#$.$+#.#...+++X,X,,,,,,,,,,,,,,,,,,,,",
",,,,,,,,,,,,,,,,,,,X,X++++.###.#.###.++++X,,,,,,,,,,,,,,,,,,,,,,",
",,,,,,,,,,,,,,,,,,,,,X++X+++#$#+#$#+++X++X,,,,,,,,,,,,,,,,,,,,,,",
",,,,,,,,,,,,,,,,,,,,,X+XX+++#$$+$$#+++XX+X,,,,,,,,,,,,,,,,,,,,,,",
",,,,,,,,,,,,,,,,,,,,,,XOX+++#$$+$$#+++XOX,,,,,,,,,,,,,,,,,,,,,,,",
",,,,,,,,,,,,,,,,,,,,,,O@@X+X$$$X$$$X+X@@O,,,,,,,,,,,,,,,,,,,,,,,",
",,,,,,,,,,,,,,,,,,,,,O*;@;X;$$$;$$$;X;@;*O,,,,,,,,,,,,,,,,,,,,,,",
",,,,,,,,,,,,,,,,,,,,,O@@;:;;$$$:$$$;;:;@@O,,,,,,,,,,,,,,,,,,,,,,",
",,,,,,,,,,,,,,,,,,,,, O@;:;:$$$>$$::;:;@O ,,,,,,,,,,,,,,,,,,,,,,",
",,,,,,,,,,,,,,,,,,,,,o=@;:;:>$$>$$>:;:;@=o,,,,,,,,,,,,,,,,,,,,,,",
",,,,,,,,,,,,,,,,,,,,o%@;:>:>>>>>>>>>:>:;@%o,,,,,,,,,,,,,,,,,,,,,",
",,,,,,,,,,,,,,,,,,,,o%@;:>>>>>>>>>>>>>:;@%o,,,,,,,,,,,,,,,,,,,,,",
",,,,,,,,,,,,,,,,,,,,o%@;>>:>>>>>>>>>:>>;@%o,,,,,,,,,,,,,,,,,,,,,",
",,,,,,,,,,,,,,,,,,,,,@;:>:;>>>>>>>>>;:>:;@,,,,,,,,,,,,,,,,,,,,,,",
",,,,,,,,,,,,,,,,,,,,,@;:>:;:>>>>>>>:;:>:;@,,,,,,,,,,,,,,,,,,,,,,",
",,,,,,,,,,,,,,,,,,,,,@;::;;:>>>>>>>:;;::;@,,,,,,,,,,,,,,,,,,,,,,",
",,,,,,,,,,,,,,,,,,,,,,@@;;@::>>>>>::@;;@@,,,,,,,,,,,,,,,,,,,,,,,",
",,,,,,,,,,,,,,,,,,,,,,,,@@@@;;;;;;;@@@@,,,,,,,,,,,,,,,,,,,,,,,,,",
",,,,,,,,,,,,,,,,,,,,,,,,,,,ooo,,,ooo,,,,,,,,,,,,,,,,,,,,,,,,,,,,",
",,,,,,,,,,,,,,,,,,,,,,,,,,,,,,,,,,,,,,,,,,,,,,,,,,,,,,,,,,,,,,,,",
",,,,,,,,,,,,,,,,,,,,,,,,,,,,,,,,,,,,,,,,,,,,,,,,,,,,,,,,,,,,,,,,",
",,,,,,,,,,,,,,,,,,,,,,,,,,,,,,,,,,,,,,,,,,,,,,,,,,,,,,,,,,,,,,,,",
",,,,,,,,,,,,,,,,,,,,,,,,,,,,,,,,,,,,,,,,,,,,,,,,,,,,,,,,,,,,,,,,",
",,,,,,,,,,,,,,,,,,,,,,,,,,,,,,,,,,,,,,,,,,,,,,,,,,,,,,,,,,,,,,,,",
",,,,,,,,,,,,,,,,,,,,,,,,,,,,,,,,,,,,,,,,,,,,,,,,,,,,,,,,,,,,,,,,",
",,,,,,,,,,,,,,,,,,,,,,,,,,,,,,,,,,,,,,,,,,,,,,,,,,,,,,,,,,,,,,,,",
",,,,,,,,,,,,,,,,,,,,,,,,,,,,,,,,,,,,,,,,,,,,,,,,,,,,,,,,,,,,,,,,",
",,,,,,,,,,,,,,,,,,,,,,,,,,,,,,,,,,,,,,,,,,,,,,,,,,,,,,,,,,,,,,,,",
",,,,,,,,,,,,,,,,,,,,,,,,,,,,,,,,,,,,,,,,,,,,,,,,,,,,,,,,,,,,,,,,",
",,,,,,,,,,,,,,,,,,,,,,,,,,,,,,,,,,,,,,,,,,,,,,,,,,,,,,,,,,,,,,,,",
",,,,,,,,,,,,,,,,,,,,,,,,,,,,,,,,,,,,,,,,,,,,,,,,,,,,,,,,,,,,,,,,",
",,,,,,,,,,,,,,,,,,,,,,,,,,,,,,,,,,,,,,,,,,,,,,,,,,,,,,,,,,,,,,,,",
",,,,,,,,,,,,,,,,,,,,,,,,,,,,,,,,,,,,,,,,,,,,,,,,,,,,,,,,,,,,,,,,",
",,,,,,,,,,,,,,,,,,,,,,,,,,,,,,,,,,,,,,,,,,,,,,,,,,,,,,,,,,,,,,,,",
",,,,,,,,,,,,,,,,,,,,,,,,,,,,,,,,,,,,,,,,,,,,,,,,,,,,,,,,,,,,,,,,"
};
