/* XPM */
static char *f6bc0506207a40d0bbc99fd7d9bc76a8Ti0ACxRI2GDtZ6Pz[] = {
/* columns rows colors chars-per-pixel */
"64 64 140 2 ",
"   c #0C0500",
".  c #170E06",
"X  c #151515",
"o  c #3E2406",
"O  c #262116",
"+  c #292112",
"@  c #232119",
"#  c #29261F",
"$  c #1B1625",
"%  c #1E152D",
"&  c #2A1F32",
"*  c #2B2A2B",
"=  c #442706",
"-  c #472904",
";  c #4C2B05",
":  c #532D04",
">  c #543006",
",  c #5B3305",
"<  c #5D390C",
"1  c #613606",
"2  c #643807",
"3  c #6A3E06",
"4  c #613708",
"5  c #61390A",
"6  c #673F11",
"7  c #443B29",
"8  c #6D410A",
"9  c #754507",
"0  c #7C4B0A",
"q  c #6B4213",
"w  c #704514",
"e  c #4C4333",
"r  c #44433D",
"t  c #4C4A3E",
"y  c #514937",
"u  c #5C4935",
"i  c #5E4C38",
"p  c #362D4A",
"a  c #3C2B5A",
"s  c #553E64",
"d  c #4E4C44",
"f  c #6D5943",
"g  c #6A5A48",
"h  c #705C47",
"j  c #725E49",
"k  c #635D53",
"l  c #76624E",
"z  c #78634F",
"x  c #65635D",
"c  c #776350",
"v  c #796551",
"b  c #7D6955",
"n  c #7E6C59",
"m  c #6B6964",
"M  c #8A4D07",
"N  c #824D0A",
"B  c #934E05",
"V  c #85510C",
"C  c #8C530B",
"Z  c #90560B",
"A  c #945A0C",
"S  c #9A5E0D",
"D  c #965E10",
"F  c #A55A06",
"G  c #AC5F06",
"H  c #9A600E",
"J  c #A3640D",
"K  c #BD6D07",
"L  c #A06210",
"P  c #A96912",
"I  c #C36E05",
"U  c #C57206",
"Y  c #C97506",
"T  c #CE7B0A",
"R  c #D17703",
"E  c #D37E06",
"W  c #D17D09",
"Q  c #816D5A",
"!  c #83705E",
"~  c #857462",
"^  c #8B7866",
"/  c #8B7C6B",
"(  c #8D7E70",
")  c #CF8109",
"_  c #D58106",
"`  c #DB8506",
"'  c #D18209",
"]  c #D88609",
"[  c #DD8A09",
"{  c #E28B06",
"}  c #E28D09",
"|  c #E5950D",
" . c #E8970A",
".. c #EC9C0B",
"X. c #EC9E11",
"o. c #EFA00D",
"O. c #F0A20D",
"+. c #EEA211",
"@. c #F5AB13",
"#. c #FAB314",
"$. c #8F8070",
"%. c #83817B",
"&. c #968879",
"*. c #988A7C",
"=. c #8F8C87",
"-. c #9C8F81",
";. c #9E9183",
":. c #A39384",
">. c #A69688",
",. c #A7998D",
"<. c #AA9A8D",
"1. c #AB9D91",
"2. c #B0A69B",
"3. c #B4ADA3",
"4. c #B8AFA5",
"5. c #B7B2A9",
"6. c #BAB3AB",
"7. c #BFBAB2",
"8. c #C3BDB5",
"9. c #C6C2BB",
"0. c #C9C3BC",
"q. c #CBC7C1",
"w. c #CDC8C3",
"e. c #D1CCC6",
"r. c #D1CEC9",
"t. c #D5D2CD",
"y. c #D6D2CD",
"u. c #D6D4CF",
"i. c #D7D5D0",
"p. c #D9D6D2",
"a. c #DBD8D5",
"s. c #DFDDD9",
"d. c #E0DEDA",
"f. c #E2E0DC",
"g. c #E6E4DF",
"h. c #E6E4E1",
"j. c #EBE9E5",
"k. c #EEEBE4",
"l. c #EFEDE5",
"z. c #F1EFE9",
/* pixels */
"* * * * * * * * * * * * * * * * * * * * * * * * * * * * * * * * * * * * * * * * * * * * * * * * * * * * * * * * * * * * * * * * ",
"* * * * * * * * * * * * * * * * * * * * * * * * * * * * * * * * * * * * * * * * * * * * * * * * * * * * * * * * * * * * * * * * ",
"s s s s s s s s s s s s s s s s s s s s s s s s * * * * * * s s s s s s s s s s s s s s s s s s s s s s s s s s s s * * * * * * ",
"s s s s s s s s s s s s s s s s s s s s s s s s * * * * * * s s s s s s s s s s s s s s s s s s s s s s s s s s s s * * * * * * ",
"s s s s s s s s s s a a s s s s s s s s s s s s s s * * s s s s s s s s s s s s a a s s s s s s a a s s s s s s s s s s * * s s ",
"s s s s s s s s s s a a s s s s s s s s s s s s s s * * s s s s s s s s s s s s a a s s s s s s a a s s s s s s s s s s * * s s ",
"a a a a s s a a a a a a a a s s a a a a a a s s s s * * s s s s a a a a s s a a a a a a s s a a a a a a a a a a a a s s * * s s ",
"a a a a s s a a a a a a a a s s a a a a a a s s s s * * s s s s a a a a s s a a a a a a s s a a a a a a a a a a a a s s * * s s ",
"a a a a a a a a a a p p a a a a a a a a p p p p s s * * s s p p p p a a a a a a a a a a a a a a a a a a a a p p a a a a * * a a ",
"a a a a a a a a a a p p a a a a a a a a p p p p s s * * s s p p p p a a a a a a a a a a a a a a a a a a a a p p a a a a * * a a ",
"p p p p p p p p p p p p p p p p p p p p p p p p p p * * p p p p p p p p p p p p a a a a p p p p p p p p p p p p p p p p * * p p ",
"p p p p p p p p p p p p p p p p p p p p p p p p p p * * p p p p p p p p p p p p a a a a p p p p p p p p p p p p p p p p * * p p ",
"p p p p p p p p p p p p p p p p p p p p p p p p * * * * * * p p p p p p p p p p p p p p p p p p p p p p p p p p p p * * * * * * ",
"p p p p p p p p p p p p p p p p p p p p p p p p * * * * * * p p p p p p p p p p p p p p p p p p p p p p p p p p p p * * * * * * ",
"* * * * * * * * * * * * * * * * * * * * * * * * * * * * * * * * * * * * * * * * * * * * * * * * * * * * * * * * * * * * * * * * ",
"* * * * * * * * * * * * * * * * * * * * * * * * * * * * * * * * * * * * * * * * * * * * * * * * * * * * * * * * * * * * * * * * ",
"s s s s s s * * * * * * d O O @ s s s s s s s s s s s s s s s s s s s s s s s s s s * * d @ @ @ @ s s s s s s s s s s s s s s s ",
"s s s s s s * * * * * * <.^ ^ ^ w , : , 4 4 4 4 4 4 1 , 4 4 1 4 2 4 2 2 1 2 2 1 , , , 1 <.^ ^ ^ @ s s s s s s s s s s s s s s s ",
"s s s s s s s s * * s s 8.<.1.<.w Z Z A J J J J J J J L P P P P P P P P P S S C C C C J 9.<.>.>.@ s s s s s s s s s a a a a s s ",
"s s s s s s s s * * s s d.a.a.a.w U K K U Y U W U T E [ ` } } | ` { } } } E E Y Y Y `  .y.r.r.r.@ s s s s s s s s s a a a a s s ",
"s s a a s s s s * * s s j.g.g.g.w ' } } { ......{ ..X.| | O.O...X.| O.O.O.@.@.@.@.@.#.@.p.y.r.y.# s a a s s a a a a a a a a a a ",
"s s a a s s s s * * s s z.k.k.k.w M M M M M M M M M M M M B I F B F G F F U U U U F B M s.u.u.u.r s a a s s a a a a a a a a a a ",
"a a a a p p s s * * s s l.k.k.k.w ..O.@.@.@.#.#.#.#.@.#.#.#.#.#.@.#.#.#.#.#.#.#.#.#.@.+.h.f.s.s.m p a a a a a a a a p p p p a a ",
"a a a a p p s s * * s s z.z.z.z.w ..] ' { { { } | O.....O.@.@.@.O.O.@.@.@.} [ { | X.X.#.h.s.s.s.m p a a a a a a a a p p p p a a ",
"a a p p p p p p * * p p j.d.d.g.w T [ W R ' } ..O.X.O.@.@.@.o.o...@.@.O.O.{ } o.o.o.o.@.f.i.u.y.r p p p a a a a p p p p a a a a ",
"a a p p p p p p * * p p a.<.1.1.w { { E ' [ { [ ] |  .....o.o. .{ {  .} [ | { { ] | @.@.i.<.<.<.# p p p a a a a p p p p a a a a ",
"p p p p p p p p * * p p p.>.>.>.w U U U U U U U U E E ` ` ` U U U U U U E E W W E E [ ] i.>.>.>.@ $ $ $ $ $ $ p p p p p p p p p ",
"p p p p p p p p * * p p y.>.:.>.w 5 8 8 5 5 B B B < < < < < < 4 5 5 5 3 B F F F J 8 8 < u.>.:.>.O $ $ $ $ $ $ p p p p p p p p p ",
"p p p p p p * * * * * * e.:.:.:.q I U I ' ) ' ' _ ) E E ) ) ' ' ' E ' ' E E ' ' ) ) _ E e.:.:.:.@ $ $ $ $ $ $ p p p p p p p p p ",
"p p p p p p * * * * * * 0.:.:.:.q C V V C V N N 0 V N N N 0 M V V N N V N Z Z Z C V V S 0.;.;.:.@ $ $ $ $ $ $ p p p p p p p p p ",
"* * * * * * * * * * * * 4.~ Q ~ q C V V C Z C C C Z C Z V Z A S L V Z A S L S D C C H P 4.Q Q Q O X X X X X X * * * * * * * * * ",
"* * * * * * * * * * * * 1.Q Q Q q V C V D 0 N N N N V N k k k k k N V V C C V C Z A S J 1.Q Q b O X X X X X X * * * * * * * * * ",
"s s s s s s s s s s s s ;.n n n 6 q 6 6 6 : : ; : ; 6 %.i.r.y.r.i.=.: ; : > , , , , , 6 -.b b b O & X X X X X * s s s s s s s s ",
"s s s s s s s s s s s s $.b v b ( 3.5.8.w.w.9.6.3.( m r.3.1.1.<.4.y.x / 3.3.7.q.q.8.3./ v v v v O & X X X X X * s s s s s s s s ",
"s s s s s s s s s s s s ~ v v v v v c v v v c v c c @ -.:.t t t <.>.@ l l c c c c c c c c c c l + & & & X X & s s s s s a a s s ",
"s s s s s s s s s s s s Q z z v c l l c c c l c l l @ ^ @ @ @ @ @ ^ @ l l l l j j c j j l j l l + & & & X X & s s s s s a a s s ",
"a a s s a a a a a a s s + + + + + O + + + + + + + + @ ^ t @ @ @ t ^ @ + O + + + + + + + + + + + + & & & X X & s s s a a a a a a ",
"a a s s a a a a a a s s + i i i i i j j h h i j j i @ ^ ^ t t t ^ ^ @ i u i h u i i h h i i i u + & & & X X & s s s a a a a a a ",
"a a a a a a a a a a p p + i i i i i j h h h i h h u i @ ^ ^ ^ ^ ^ @ u i i u f i u u h f u u u u + % & & X X & s a a a a p p a a ",
"a a a a a a a a a a p p       .                   u h u @ @ @ @ @ u u +               .           % & & X X & s a a a a p p a a ",
"a a a a p p p p a a a a p e e * 7 < 0 0 0 > N 8 9   h h u f h u u u +   : 0 0 : 0 8 9 y 7 7 7 + % % $ $ X X $ p a a a a a a p p ",
"a a a a p p p p a a a a p g u i u < N 0 N : V 3 3 3     u f f i u     : N 9 N : 0 8 9 h u u u + % % $ $ X X $ p a a a a a a p p ",
"a a p p p p a a a a a a p n h f f < 0 9 0 : N 6 3 9 9 ,           : 0 0 0 9 0 : 0 8 8 ~ f f f + $ $ $ $ X X $ p p p a a a a a a ",
"a a p p p p a a a a a a p n g g f < 0 9 0 : N 3 3 9 9 1 N 9 9 9 9 : 0 9 0 9 0 : 0 8 8 ^ f f f + $ $ $ $ X X $ p p p a a a a a a ",
"p p p p p p p p a a p p p / f f f < 0 9 9 : N 8 8 9 9 , V 9 8 8 9 : 9 0 0 9 9 : 0 8 8 / g f f + $ $ $ $ X X $ p p p p p a a p p ",
"p p p p p p p p a a p p p / f f f < 9 8 9 : N 9 8 9 0 , V 3 3 8 9 : 9 9 9 8 9 : 9 8 8 / f f f + $ $ $ $ X X $ p p p p p a a p p ",
"p p p p p p p p p p p p p / f f f < ; - ; o : : ; ; > = > ; ; ; ; o ; ; - ; ; o ; ; - ^ f f f + $ $ X X X X X * p p p p p p p p ",
"p p p p p p p p p p p p p ~ f f l c ~ ~ ! ! ~ ^ / / $.$.&.*.-.,.2.4.5.8.0.9.8.2.;.*.&.v f f f + $ $ X X X X X * p p p p p p p p ",
"* * * * * * * * * * * * * ! f f f u u u u u u u u u u u u u u u u u u u u u u u u u u u f f h + X X X X X X X * * * * * * * * * ",
"* * * * * * * * * * * * *   u u u 7                                                   7 u u u   X X X X X X X * * * * * * * * * ",
"s s s s s s s s s s * * *           & & & & & & & & & & & & & & & & & & & & & & X X X           & & & & & & & s s s s s s s s s ",
"s s s s s s s s s s * * * * * * s s s s s s s s s s s s s s s s s s s s s s s s * * * * * * s s s s s s s s s s s s s s s s s s ",
"s s s s s s s s s s s s * * s s s s s s s s s s s s a a s s s s s s a a s s s s s s * * s s s s s s s s s s s s s s s s a a s s ",
"s s s s s s s s s s s s * * s s s s s s s s s s s s a a s s s s s s a a s s s s s s * * s s s s s s s s s s s s s s s s a a s s ",
"a a s s a a a a s s s s * * s s s s a a a a s s a a a a a a s s a a a a a a s s s s * * s s s s a a a a s s a a a a a a a a a a ",
"a a s s a a a a s s s s * * s s s s a a a a s s a a a a a a s s a a a a a a s s s s * * s s s s a a a a s s a a a a a a a a a a ",
"p p a a a a a a p p s s * * s s p p a a a a a a a a a a a a p p a a a a a a p p s s * * s s p p a a a a a a a a a a a a p p a a ",
"p p a a a a a a p p s s * * s s p p a a a a a a a a a a a a p p a a a a a a p p s s * * s s p p a a a a a a a a a a a a p p a a ",
"a a a a a a p p p p p p * * p p p p p p a a p p p p a a a a a a a a a a p p p p p p * * p p p p p p a a a a a a a a p p p p a a ",
"a a a a a a p p p p p p * * p p p p p p a a p p p p a a a a a a a a a a p p p p p p * * p p p p p p a a a a a a a a p p p p a a ",
"p p a a p p p p p p p p * * p p p p p p p p p p p p p p p p p p a a p p p p p p p p * * p p p p p p p p a a p p p p p p p p p p ",
"p p a a p p p p p p p p * * p p p p p p p p p p p p p p p p p p a a p p p p p p p p * * p p p p p p p p a a p p p p p p p p p p ",
"p p p p p p p p p p * * * * * * p p p p p p p p p p p p p p p p p p p p p p p p * * * * * * p p p p p p p p p p p p p p p p p p ",
"p p p p p p p p p p * * * * * * p p p p p p p p p p p p p p p p p p p p p p p p * * * * * * p p p p p p p p p p p p p p p p p p "
};
