/* XPM */
static char *e52e868c5a3d41b1d61f241d28bc0413tqdp8nelr7QKJGth[] = {
/* columns rows colors chars-per-pixel */
"64 64 143 2 ",
"   c #0C0500",
".  c #170E06",
"X  c #151515",
"o  c #231302",
"O  c #241807",
"+  c #2B1A06",
"@  c #231B0D",
"#  c #2D1C08",
"$  c #231E12",
"%  c #3E2406",
"&  c #2A2111",
"*  c #232119",
"=  c #29261F",
"-  c #352310",
";  c #392915",
":  c #1B1625",
">  c #1E152D",
",  c #2A1F32",
"<  c #2B2A2B",
"1  c #442706",
"2  c #462806",
"3  c #4C2B05",
"4  c #432808",
"5  c #532D04",
"6  c #543006",
"7  c #5E3405",
"8  c #5C380D",
"9  c #42311F",
"0  c #603506",
"q  c #663907",
"w  c #6C3D06",
"e  c #763E04",
"r  c #443421",
"t  c #473825",
"y  c #443B29",
"u  c #6D4109",
"i  c #754507",
"p  c #7C4B0A",
"a  c #704514",
"s  c #50402D",
"d  c #44433D",
"f  c #4C4A3E",
"g  c #514937",
"h  c #5C4A35",
"j  c #5E4C38",
"k  c #614E3C",
"l  c #60503F",
"z  c #362D4A",
"x  c #3C2B5A",
"c  c #553E64",
"v  c #4E4C44",
"b  c #645342",
"n  c #6D5943",
"m  c #6E5E4D",
"M  c #705C47",
"N  c #725E49",
"B  c #6F5F50",
"V  c #75614E",
"C  c #776350",
"Z  c #7C6956",
"A  c #696761",
"S  c #6B6963",
"D  c #75736C",
"F  c #814D0A",
"G  c #944F06",
"H  c #83510C",
"J  c #8B540C",
"K  c #94590C",
"L  c #9D5F0D",
"P  c #A75B05",
"I  c #AB5D05",
"U  c #A85F09",
"Y  c #9D600E",
"T  c #A2620D",
"R  c #AA650D",
"E  c #B26306",
"W  c #BA6403",
"Q  c #BC6B06",
"!  c #A36511",
"~  c #A76810",
"^  c #AD6D13",
"/  c #B06D12",
"(  c #B47010",
")  c #C16D07",
"_  c #C67106",
"`  c #C97506",
"'  c #D37A04",
"]  c #D17D09",
"[  c #82715E",
"{  c #847462",
"}  c #8A7866",
"|  c #857A6D",
" . c #8B7C6B",
".. c #D68106",
"X. c #DD8506",
"o. c #D5830A",
"O. c #D98609",
"+. c #DF8A09",
"@. c #E28B07",
"#. c #E28D09",
"$. c #E5930B",
"%. c #EC9A0A",
"&. c #ECA00E",
"*. c #F0A10D",
"=. c #F0A613",
"-. c #F6AD15",
";. c #F9B113",
":. c #8F8070",
">. c #968879",
",. c #988A7C",
"<. c #8F8C87",
"1. c #968F85",
"2. c #979087",
"3. c #9E9184",
"4. c #A9998B",
"5. c #A99C90",
"6. c #ACA49B",
"7. c #B2A79C",
"8. c #B6AA9E",
"9. c #B7ADA1",
"0. c #B4AFA8",
"q. c #B7B2AC",
"w. c #BEBAB4",
"e. c #C4BCB5",
"r. c #C0BDB8",
"t. c #C6C2BD",
"y. c #CAC4BD",
"u. c #CBC7C2",
"i. c #CECBC6",
"p. c #D1CDC8",
"a. c #D5D1CC",
"s. c #D8D4CF",
"d. c #D7D5D0",
"f. c #D9D6D2",
"g. c #DCD9D5",
"h. c #DFDDDA",
"j. c #E0DDDA",
"k. c #E3E1DE",
"l. c #E5E4E1",
"z. c #E8E6E3",
"x. c #EAE8E6",
"c. c #EEEDEB",
"v. c #F1EFEF",
/* pixels */
"< < < < < < < < < < < < < < < < < < < < < < < < < < < < < < < < < < < < < < < < < < < < < < < < < < < < < < < < < < < < < < < < ",
"< < < < < < < < < < < < < < < < < < < < < < < < < < < < < < < < < < < < < < < < < , < < < < < < < < < < < < < < < < < < < < < < ",
"c c c c c c c c c c c c c c c c c c c c c c c c < < < < < < c c c c c c c c c c c c c c c c c c c c c c c c c c c c < < < < < < ",
"c c c c c c c c c c c c c c c c c c c c c c c c < < < < < < c c c c c c c c c c c c c c c c c c c c c c c c c c c c < < < < < < ",
"c c c c c c c c c c x x c c c c c c c c c c c c c c < < c c c c c c c c c c c c x x c c c c c c x x c c c c c c c c c c < < c c ",
"c c c c c c c c c c x x c c c c c c c c c c c c c c < < c c c c c c c c c c c c x x c c c c c c x x c c c c c c c c c c < < c c ",
"x x x x c c x x x x x x x x c c x x x x x x c c c c < < c c c c x x x x c c x x x x x x c c x x x x x x x x x x x x c c < < c c ",
"x x x x c c x x x x x x x x c c x x x x x x c c c c < < c c c c x x x x c c x x x x x x c c x x x x x x x x x x x x c c < < c c ",
"x x x x x x x x x x z z x x x x x x x x z z z z c c < < c c z z z z x x x x x x x x x x x x x x x x x x x x z z x x x x < < x x ",
"x x x x x x x x x x z z x x x x x x x x z z z z c c < < c c z z z z x x x x x x x x x x x c x x x x x x x x z z x x x x < < x x ",
"z z z z z z z z z z z z z z z z z z z z z z z z z z < < z z z z z z z z z z z z x x x x z z z z z z z z z z z z z z z z < < z z ",
"z z z z z z z z z z z z z z z z z z z z z z z z z z < < z z z z z z z z z z z z x x x x z z z z z z z z z z z z z z z z < < z z ",
"z z z z z z z z z z z z z z z z z z z z z z z z < < < < < < z z z z z z z z z z z z z z z z z z z z z z z z z z z z < < < < < < ",
"z z z z z z z z z z z z v * * * z z z z z z z z < < < < < < z z z z z z z z z z z z z z v $ * $ X z z z z z z z z z < < < < < < ",
"< < < < < < < < < < < < 5. .} } 2 0 q w w w e e e e e e e e e e w e e e e e e e e e w q 5.} } } * < < < < < < < < < < < < < < < ",
"< < < < < < < < < < < < y.4.5.4.5 T J J K K K K L ! T T R ^ / ^ R R / / ^ K K K T ! ! / e.5.4.4.* < < < < < < < < < < < < < < < ",
"c c c c c c < < < < < < j.f.f.f.a E ` ) W W ` X.X.X.X.$.$.#.X.X...#.#.@.X.` _ X.+.+.@.$.d.p.p.p.* c c c c c c c c c c c c c c c ",
"c c c c c c < < < < < < v.j.k.k.2 @.@.] ] @.@.@.O.$.%.%.*.*.&.%.#.@.%.@.@.%.@.@.o.$.-.;.g.p.p.p.= c c c c c c c c c c c c c c c ",
"c c c c c c c c < < c c v.x.v.x.2 @.@.@.#.#.@.@.@.%.%.&.*.*.#.@.#.@.#.@.%.%.%.%.%.%.-.=.h.d.f.d.d c c c c c c c c c x x x x c c ",
"c c c c c c c c < < c c v.v.v.c.2 G I I G G I U R G G G G G G G G G G P I ) _ _ _ I P G l.j.j.j.S c c c c c c c c c x x x x c c ",
"c c x x c c c c < < c c v.v.v.v.4 +.#.#.&.&.&.&.&.&.&.%.&.%.&.&.&.&.&.&.&.&.&.&.%.&.&.%.z.j.j.j.S c x x c c x x x x x x x x x x ",
"c c x x c c c c < < c c z.j.j.j.4 +.O.o.@.o.' o.' o.' ' ' ' o.o.@.' ' o.o.#.#.#.+.o.O.%.j.s.a.a.d c x x c c x x x x x x x x x x ",
"x x x x z z c c < < c c g.a.a.a.3 _ Q Q ` ` _ ` _ ` ` ` ` ] ] o.@._ ] ] O.@.O.O.` ` O.$.a.a.a.a.= z x x x x x x x x z z z z x x ",
"x x x x z z c c < < c c f.a.a.s.3 J K K Y J J J J J K J A A A A A J K K K K K Y Y ! ~ ( y.s.s.f.* z x x x x x x x x z z z z x x ",
"x x z z z z z z < < z z f.a.d.a.3 0 0 0 0 6 6 5 6 5 6 | a.a.a.p.d.1.3 5 6 8 0 0 7 0 0 7 t.e.e.e.* z z z x x x x z z z z x x x x ",
"x x z z z z z z < < z z f.a.a.d.p.f.a.p.p.p.p.a.p.p.r.g.a.v v v d.d.u.p.a.a.p.p.p.a.s.u.a.a.a.p.* : : : > > > x z z z z x x x x ",
"z z z z z z z z < < z z y.8.9.9.8.8.8.8.8.8.8.8.8.7.<.q.$ * * $ $ e.<.9.9.9.9.9.9.8.8.9.8.9.8.8.* : : : : : : z z z z z z z z z ",
"z z z z z z z z < < z z | B B B B B B m B B N V B B $ e.v * * $ v e.$ B B B B B B B C m N B B B * : : : : : : z z z z z z z z z ",
"z z z z z z < < < < < < * * $ * * * * * * * * * $ $ * 5.4.v v f 4.4.$ $ $ $ < $ * * * * * * * * * : : : : : : z z z z z z z z z ",
"z z z z z z < < < < < < 9 t 9 o o o o o o o o o o O * B 4.4.5.5.4.m < o O o o o o o o o o + # + o : : : : : : z z z z z z z z z ",
"< < < < < < < < < < < < k l s o o o o o o o o o o o o * B B B B B X o o o o o o o o o o o - ; - o X X X X X X < < < < < < < < < ",
"< < < < < < < < < < < < V 2.N o o o o o o o o o o o o o $ $ * * * o o o o o o o o o o o o r s t o X X X X X X < < < < < < < < < ",
"c c c c c c c c c c c c Z q.6.o o o o o o o o o o o o o o o o o o o o o o o o o o o o o o g D l O , X X X X X < c c c c c c c c ",
"c c c c c c c c c c c c >.t.r.o o o o o o o o o o o o o o o o o o o o o o o o o o o o o o b 6.2.@ < X X X X X < c c c c c c c c ",
"c c c c c c c c c c c c :.i.i.u.u.u.u.p.i.p.p.p.p.p.p.} o o o o o } 4.4.4.i.p.4.i.p.i.i.u.t.w.0.$ , , , X X , c c c c c x x c c ",
"c c c c c c c c c c c c m i.i.p.i.i.p.p.p.p.p.p.p.p.p.} } . o o } p.4.4.4.p.i.4.i.i.i.i.i.i.y.t.$ , , , X X , c c c c c x x c c ",
"x x c c x x x x x x c c & j j j j j V m M N k M M h k } } 4.4.4.p.p.j j h j M j j j M M j j j j $ , , , X X , c c c x x x x x x ",
"x x c c x x x x x x c c & j j j j j M n n m j M M h h h } 4.4.4.p.j h j h h n j h h n M h h j g & , , , X X , c c c x x x x x x ",
"x x x x x x x x x x z z                           h M h j h h j h h h &               .           > , , X X , c x x x x z z x x ",
"x x x x x x x x x x z z x g < s y 8 p p H 5 p u i   n M j n n h h h &   5 p p 5 p u u g s y s & > > , , X X , c x x x x z z x x ",
"x x x x z z z z x x x x z b h h j 8 F p p 5 H w u u     h n n h h     3 F i F 5 p w i m h h h - > > : : X X : z x x x x x x z z ",
"x x x x z z z z x x x x z Z n M n 8 p i p 5 p w u u i 0           5 p p p i p 5 p u u [ N N k % > > : : X X : z x x x x x x z z ",
"x x z z z z x x x x x x z { n n n 8 p i p 5 H u u i i 7 F i i i i 5 p p p i p 5 p u u } V k M & : : : : X X : z z z x x x x x x ",
"x x z z z z x x x x x x z :.n n n 8 p i i 5 F u u i i 7 H i i w i 5 i p p i i 5 p u u :.l N l & : : : : X X : z z z x x x x x x ",
"z z z z z z z z x x z z z  .n n n 8 i u i 5 F i u i p 7 H u w u i 5 i i i u i 5 i u u  .n n l - : : : : X X : z z z z z x x z z ",
"z z z z z z z z x x z z z  .n n n 8 3 3 3 % 6 3 3 3 6 1 6 2 1 3 3 % 3 3 3 2 3 % 3 3 2 } M l M & : : : : X X : z z z z z x x z z ",
"z z z z z z z z z z z z z } n n V V [ [ [ [ { } }  .:.:.>.,.3.5.6.9.0.e.y.t.e.6.,.,.>.Z l N l & : : X X X X X < z z z z z z z z ",
"z z z z z z z z z z z z z Z n n n h h h h h h h h h h h h h h h h h h h h h h h j h h h V k N % : : X X X X X < z z z z z z z z ",
"< < < < < < < < < < < < <   h h h t                   .                   .           y h h h   X X X X X X X < < < < < < < < < ",
"< < < < < < < < < < < < <           X X X X X X X X X X X X X X X X X X X X X X X X X           X X X X X X X < < < < < < < < < ",
"c c c c c c c c c c < < < < < < c c c c c c c c c c c c c c c c c c c c c c c c < < < < < < c c c c c c c c c c c c c c c c c c ",
"c c c c c c c c c c < < < < < < c c c c c c c c c c c c c c c c c c c c c c c c < < < < < < c c c c c c c c c c c c c c c c c c ",
"c c c c c c c c c c c c < < c c c c c c c c c c c c x x c c c c c c x x c c c c c c < < c c c c c c c c c c c c c c c c x x c c ",
"c c c c c c c c c c c c < < c c c c c c c c c c c c x x c c c c c c x x c c c c c c < < c c c c c c c c c c c c c c c c x x c c ",
"x x c c x x x x c c c c < < c c c c x x x x c c x x x x x x c c x x x x x x c c c c < < c c c c x x x x c c x x x x x x x x x x ",
"x x c c x x x x c c c c < < c c c c x x x x c c x x x x x x c c x x x x x x c c c c < < c c c c x x x x c c x x x x x x x x x x ",
"z z x x x x x x z z c c < < c c z z x x x x x x x x x x x x z z x x x x x x z z c c < < c c z z x x x x x x x x x x x x z z x x ",
"z z x x x x x x z z c c < < c c z z x x x x x x x x x x x x z z x x x x x x z z c c < < c c z z x x x x x x x x x x x x z z x x ",
"x x x x x x z z z z z z < < z z z z z z x x z z z z x x x x x x x x x x z z z z z z < < z z z z z z x x x x x x x x z z z z x x ",
"x x x x x x z z z z z z < < z z z z z z x x z z z z x x x x x x x x x x z z z z z z < < z z z z z z x x x x x x x x z z z z x x ",
"z z x x z z z z z z z z D * * * z z z z z z z z z z z z z z z z x x z z z z z z z z < < v * * * * z z z x x z z z z z z z z z z ",
"z z x x z z z z z z z z < < z z z z z z z z z z z z z z z z z z x x z z z z z z z z < < z z z z z z z z x x z z z z z z z z z z ",
"z z z z z z z z z z < < < < < < z z z z z z z z z z z z z z z z z z z z z z z z < < < < < < z z z z z z z z z z z z z z z z z z ",
"z z z z z z z z z z < < < < < < z z z z z z z z z z z z z z z z z z z z z z z z < < < < < < z z z z z z z z z z z z z z z z z z "
};
