/* XPM */
static char *_f6a0c20862241e08cd93808e1a29d54XhTe2c0qIsyq3iKE[] = {
/* columns rows colors chars-per-pixel */
"64 64 114 2 ",
"   c #170B18",
".  c #1D0E18",
"X  c #361E0F",
"o  c #391F0E",
"O  c #261416",
"+  c #2B1617",
"@  c #2D1915",
"#  c #21121B",
"$  c #2A191B",
"%  c #321B15",
"&  c #3A1E13",
"*  c #361F1E",
"=  c #3E220C",
"-  c #3E2114",
";  c #1F1422",
":  c #221623",
">  c #2E1E21",
",  c #261C2C",
"<  c #281D2B",
"1  c #252125",
"2  c #292729",
"3  c #2B2A2B",
"4  c #302023",
"5  c #3A2526",
"6  c #33232B",
"7  c #3A2529",
"8  c #2A2030",
"9  c #2B2138",
"0  c #312531",
"q  c #332837",
"w  c #332B3E",
"e  c #382E3F",
"r  c #43240D",
"t  c #4B270F",
"y  c #4B280F",
"u  c #432314",
"i  c #4A2613",
"p  c #472911",
"a  c #4D2913",
"s  c #532B13",
"d  c #5A2E14",
"f  c #532C18",
"g  c #553017",
"h  c #5E3015",
"j  c #533118",
"k  c #5B351B",
"l  c #5E3418",
"z  c #5F3519",
"x  c #5D361B",
"c  c #5C331C",
"v  c #5B371D",
"b  c #603114",
"n  c #613115",
"m  c #623215",
"M  c #603116",
"N  c #633316",
"B  c #623417",
"V  c #643417",
"C  c #62371B",
"Z  c #643518",
"A  c #653518",
"S  c #663719",
"D  c #63371D",
"F  c #63381B",
"G  c #66381A",
"H  c #67381B",
"J  c #67391B",
"K  c #613A1E",
"L  c #623A1E",
"P  c #663A1D",
"I  c #643B1F",
"U  c #683A1D",
"Y  c #683B1E",
"T  c #693B1E",
"R  c #6A3C1F",
"E  c #462821",
"W  c #623C20",
"Q  c #673D21",
"!  c #653E22",
"~  c #6A3D20",
"^  c #6B3D20",
"/  c #693E22",
"(  c #6A3F23",
")  c #6B4023",
"_  c #6B4226",
"`  c #6B4326",
"'  c #6E4225",
"]  c #6F4325",
"[  c #6E4528",
"{  c #704426",
"}  c #704427",
"|  c #704628",
" . c #74492B",
".. c #754A2C",
"X. c #2F2043",
"o. c #382F42",
"O. c #362D4A",
"+. c #373046",
"@. c #3D3344",
"#. c #3C3348",
"$. c #3C2B5A",
"%. c #402D49",
"&. c #453946",
"*. c #433949",
"=. c #553E64",
"-. c #50424D",
";. c #4E4557",
":. c #61525B",
">. c #534C64",
",. c #5F576B",
"<. c #60586D",
"1. c #70687C",
"2. c #827583",
"3. c #AD9696",
/* pixels */
"3 3 3 3 3 3 3 3 3 3 3 3 3 2 1 1 1 1 1 2 1 1 1 1 1 < 1 1 < 1 1 1 1 1 3 1 1 2 < 1 3 < 1 1 1 1 3 < 1 1 1 1 3 3 3 3 3 3 3 3 3 3 3 3 ",
"3 3 3 3 3 3 3 3 3 3 3 3 3 1             .       . .         . . .             .         . .       .     2 9 3 3 3 3 3 3 3 3 3 3 ",
"=.=.=.=.=.=.=.=.=.=.=.=.=.%.. a f f s s s f f s s s f f f f s f a s f s f s s s s f f f s s f f f s O   =.=.=.=.=.=.3 3 3 3 3 3 ",
"=.=.=.=.=.=.=.=.=.=.=.=.=.%.. d n F ^ m n V n h n V A R V n n n n n n n h R H n n n n h n n F F n m +   =.=.=.=.=.=.3 3 3 3 3 3 ",
"=.=.=.=.=.=.=.=.=.=.$.$.=.%.# d h F R f a i a y a d F K m h f a a s a d n K Z d s a s a a a F F d n +   =.=.=.=.=.=.=.=.3 3 =.=.",
"=.=.=.=.=.=.=.=.=.=.$.$.=.%.. d y a d O $ @ @ @ # i d r d & O O + $ O % n i a s O O + + + @ a h r n +   =.=.=.=.=.=.=.=.3 3 =.=.",
"$.$.$.$.=.=.$.$.$.$.$.$.$.X.. d h h d O X u s = + i n d h - @ = d u % % n n h s O X p a = O y m n n +   #.$.$.$.$.$.=.=.3 3 =.=.",
"$.$.$.$.=.=.$.$.$.$.$.$.$.X.. d n h d = y h b s - a n n m i u d h d r - n n n f = y h g a = s m n m + . $.$.$.$.$.$.=.=.3 3 =.=.",
"$.$.$.$.$.$.$.$.$.$.O.O.$.X.# d m m d = s b b b r s m m n t y m n m s r m m m s r d h b d = s m n m +   $.$.O.O.$.$.$.$.3 3 $.$.",
"$.$.$.$.$.$.$.$.$.$.O.O.$.X.. d m m d r d n V n r s m m n y y n n n s r m m m s = h V n b = s b m A +   $.$.O.O.$.$.$.$.3 3 $.$.",
"O.O.O.O.O.O.O.O.O.O.O.O.O.9 . d n m d = d b b b r y m m n y y n m m i r m m b s r d b m h = h m m m +   O.O.O.O.O.O.O.O.3 3 O.O.",
"O.O.O.O.O.O.O.O.O.O.O.O.O.9 . d n b b = d b b b r s m m n y y n m m s r m m b s = b m m h = s m A m +   O.O.O.O.O.O.O.O.3 3 O.O.",
"O.O.O.O.O.O.O.O.O.O.O.O.O.9 . d m m d = d b b b r s n m n y y n m m s r b m b h = d m m h = s m n m +   O.O.O.O.O.O.3 3 3 3 3 3 ",
"O.O.O.O.O.O.O.O.O.O.O.O.O.9 . d m m d r h H J J y y m m n t a H S S g r b m h d = h H H z r s m m n +   O.O.O.O.O.O.3 3 3 3 3 3 ",
"3 3 3 3 3 3 3 3 3 3 3 3 3 < . d m m g = !  .....y s m m n y j ......x r b m m d = ]  . .| r g m n A +   3 3 3 3 3 3 3 3 3 3 3 3 ",
"3 3 3 3 3 3 3 3 3 3 3 3 3 < . d b b d = '  ... .y y m m n y j ......x r m m m h = '  . .| = s m m n +   3 3 3 3 3 3 3 3 3 3 3 3 ",
"=.=.=.=.=.=.3 3 3 3 3 3 =.%.. d n n n s C ~ ~ ~ h h h h Z h v R R R l h m m b h s F R R I s h m m m @   =.=.=.=.=.=.=.=.=.=.=.=.",
"=.=.=.=.=.=.3 3 3 3 3 3 =.%.# d n A U h n n n n m b m H n h h m n n h n m J V V n V n h m b H V m m +   =.=.=.=.=.=.=.=.=.=.=.=.",
"=.=.=.=.=.=.=.=.3 3 =.=.=.%.. d n H } n h h h d h h I ] m m h h h h h h m { I h n h h h h h ' R n n @   =.=.=.=.=.=.$.$.$.$.=.=.",
"=.=.=.=.=.=.=.=.3 3 =.=.=.%.. d s s h % % % % % % i h y h u % % % % % - b y s d % % % % % % f d i n +   =.=.=.=.=.=.$.$.$.$.=.=.",
"=.=.$.$.=.=.=.=.3 3 =.=.=.%.# d d d d O % - u % + u h s h - @ = u - @ % m h d s + % u u X O a d s n +   =.=.$.$.$.$.$.$.$.$.$.$.",
"=.=.$.$.=.=.=.=.3 3 =.=.=.%.. d d b d X u s d i X a m m h - = y n s - - b m h s @ r d h r o a n n n +   =.=.$.$.$.$.$.$.$.$.$.$.",
"$.$.$.$.O.O.=.=.3 3 =.=.O.9 . d m m d r d m m m r s m m h y y m m m y r m m n s = h h n b r s m n m %   %.$.$.$.$.$.O.O.O.O.$.$.",
"$.$.$.$.O.O.=.=.3 3 =.=.O.9 . d m m d r s m m m r s m n n y y m m m s r h n n s = h m n d r s b m m @   $.$.$.$.$.$.O.O.O.$.$.$.",
"$.$.O.O.O.O.O.O.3 3 O.O.O.9 # d m m n = d b b m r s b m m y y m m m s r n m m h = h n n h = d b m V +   $.$.$.$.O.O.O.O.$.$.$.$.",
"$.$.O.O.O.O.O.O.3 3 O.O.O.9 . d m m d = d b b b r s m m m y y b m m y r m m n s = d n V d = s V V n +   $.$.$.$.O.O.O.O.$.$.$.$.",
"O.O.O.O.O.O.O.O.3 3 O.O.O.9 . d b b d = d h b b r y m m m y y m m m s r m m n h = d n n d r s n n n +   O.O.O.O.O.O.O.O.O.O.O.O.",
"O.O.O.O.O.O.O.O.3 3 O.O.O.9 . d n b d = h m m b r s m m b y y m m m s r m n h s r d V n b r s b n n +   O.O.O.O.O.O.O.O.O.O.O.O.",
"O.O.O.O.O.O.3 3 3 3 3 3 O.9 . d n n d r K ' } } y s m m m y j ] ] ] z r m m m s r ~ _ [ ~ r d n n n @   O.O.O.O.O.O.O.O.O.O.O.O.",
"O.O.O.O.O.O.3 3 3 3 3 3 O.9 . d m m h = !  ... .y s m m m y g .... .x r m m h h = _ ....[ r s n n n +   O.O.O.O.O.O.O.O.O.O.O.O.",
"3 3 3 3 3 3 3 3 3 3 3 3 3 1 . d m m n y I } } } y s m m m s g ] } } z y m m h b y R } | ) i d n n V + . 3 3 3 3 3 3 3 3 3 3 2 3 ",
"3 3 3 3 3 3 3 3 3 3 3 3 3 < . d m m b n b b b m m m m V m m m m m m m m m m b b n n n V n n V n m m +   3 3 3 3 3 3 3 3 3 3 3 3 ",
"=.=.=.=.=.=.=.=.=.=.=.=.=.%.. d n A } b n n n n n h H ] V n m m m m z b m ) R h h n m n n m _ ^ n n +   3 3 3 3 =.=.=.=.=.=.=.=.",
"=.=.=.=.=.=.=.=.=.=.=.=.=.o.. d s x H u u - u - u s h x n i u - - - - i m x x h - u u - u u x x s n +   3 3 3 3 =.=.=.=.=.=.=.=.",
"=.=.=.=.=.=.=.=.=.=.=.=.=.%.. d s s d O @ % = @ O i h p h - @ % - - O % n y s a O @ & X O + a a - n +   3 3 =.=.=.=.=.=.$.$.=.=.",
"=.=.=.=.=.=.=.=.=.=.=.=.=.%.. d m n f $ = s d r @ i n n n u % r h y = @ n n n s O = s h = @ i E 6 d +   3 3 =.=.=.=.=.=.$.$.=.=.",
"$.$.=.=.$.$.$.$.%.$.=.=.$.X.. d m m h = s d n h u a n m n y r h m m s r n m n h = s h m h = O $ < #     3 3 =.=.=.=.$.$.$.$.$.$.",
"$.$.=.=.$.$.$.$.$.$.=.=.$.X.# d m m d = d n m m r s m m n y y n m m y r n n n d = s b n h = O q ;., .   3 3 =.=.=.=.$.$.$.$.$.$.",
"$.$.$.$.$.$.$.$.$.$.$.O.$.X.# d m n d = s h m m r y m m n y y m m m y r m m n d = h m n h = $ +.<.:.0 : 3 3 =.=.$.$.$.$.O.O.$.$.",
"$.$.$.$.$.$.$.$.$.$.O.O.$.X.. d m n d = h m m m r s m m n y y n m m s r h m n s = h m z h = $ w >.3.-.8 3 3 =.=.$.$.$.$.O.O.$.$.",
"$.$.$.$.O.O.O.O.$.$.$.$.O.9 . d m m d r s b m m r y m m m y y n m m y y V b m s = d b b h r # ; &.3.-.8 3 3 O.O.$.$.$.$.$.$.O.O.",
"$.$.$.$.O.O.O.O.$.$.$.$.O.9 . d m m h = d h m m r s m m m y y m m m y r b m m h = h m m h = O # @.2.&.8 3 3 O.O.$.$.$.$.$.$.O.O.",
"$.$.O.O.O.O.$.$.$.$.$.$.O.9 . d m m h = Z ^ J R r s m n m y s R R R h r m m b s = K R ^ I r $ , e 1.#.8 3 3 O.O.O.O.$.$.$.$.$.$.",
"$.$.O.O.O.O.$.$.$.$.$.$.O.9 # d m m s = ) ......p s m Z m y j .... .x r b b b f r } ....| u 4 8 e 1.#.8 3 3 O.O.O.O.$.$.$.$.$.$.",
"O.O.O.O.O.O.O.O.$.$.O.O.O.9 . d m h h = W ......i s n n n i d  .....v r m n n h = ` ....| p 4 8 e 1.@.2 3 3 O.O.O.O.O.O.$.$.O.O.",
"O.O.O.O.O.O.O.O.$.$.O.O.O.9 . d m h h h m F H H h d m n V d h A H J h d m n n h h V S P Z h 7 *.<.>.o.8 3 3 O.O.O.O.O.O.$.$.O.O.",
"O.O.O.O.O.O.O.O.O.O.O.O.O.9   h m P ^ m m m h h n n H ~ V n h n b n n h m ~ H n h m h m h n - O.>.O., ; 3 3 3 3 O.O.O.O.O.O.O.O.",
"O.O.O.O.O.O.O.O.O.O.O.O.O.9 # s h F ^ f s a s f s d F W m d f f f s a h m ~ F h s a s a a s O , #.7 #   3 3 3 3 O.O.O.O.O.O.O.O.",
"2 3 3 3 3 3 3 3 3 3 3 3 3 < . d y y h + O @ @ $ O i d r n - @ + @ O + % b r s a O O @ O O O   $ 7 M +   3 3 3 3 3 3 3 3 3 3 3 3 ",
"3 3 3 3 3 3 3 3 3 3 3 3 3 < . d h m d + X p y = @ u h d n - @ o d r % % b h h s + X p a r $ u h d M +   3 3 3 3 3 3 3 3 3 3 3 3 ",
"=.=.=.=.=.=.=.=.=.=.3 3 3 1 . d n m s = u h h s = a b b n r r s n d r r b n n s & y d h a X s m A n +   =.=.=.=.=.=.=.=.=.=.=.=.",
"=.=.=.=.=.=.=.=.=.=.3 3 3 1 . d b h h = s h b b r s b V n y y m n b s r b V b d = h n b h r s m n A +   =.=.=.=.=.=.=.=.=.=.=.=.",
"=.=.=.=.=.=.=.=.=.=.=.=.3 1 # M m m h = h m m m r s m m m y y m n n s r b m m d = h n n h = s n n N @   =.=.=.=.=.=.=.=.$.$.=.=.",
"=.=.=.=.=.=.=.=.=.=.=.=.3 : . d m m s r s m m h r s m m m y y m n m s r b V m h = d m m h r s b N n +   =.=.=.=.=.=.=.=.$.$.=.=.",
"$.$.=.=.$.$.$.$.=.=.=.=.3 1 # d n m d = s n n m r s n n m y y b m m s r b b h d = d m m h = d n n n +   =.=.$.$.$.$.$.$.$.$.$.$.",
"$.$.=.=.$.$.$.$.=.=.=.>.3 : . d n n d = h n n n r y n n m y y b m m s r b b b s = h m m h = s n N n +   =.=.$.$.$.$.$.$.$.$.$.$.",
"O.O.$.$.$.$.$.$.O.O.=.=.2 1 # d m m d = h F J H r s m m b t i A V H g r b n m h = l H A N u s n A n +   $.$.$.$.$.$.$.$.O.O.$.$.",
"O.O.$.$.$.$.$.$.O.O.=.=.3 : . d m m d r F  ... .y s m V m i j .. . .x r b b h d = _ ....] u d n n n +   $.$.$.$.$.$.$.$.O.O.$.$.",
"$.$.$.$.$.$.O.O.O.O.O.O.3 1 # d m m h = !  . ...i y m n m y j  . ...v r b b h d r ( ....[ r d n n n @   $.$.$.$.$.$.O.O.O.O.$.$.",
"$.$.$.$.$.$.O.O.O.O.O.O.3 : . d m U F s F _ ^ R g h V R m d x ~ R R F s m J J d s H ^ ^ F f z H n m +   $.$.$.$.$.$.O.O.O.O.$.$.",
"O.O.$.$.O.O.O.O.O.O.O.O.3 1 . f d F _ n n n n n b m V ' n n A n n n b b m ) H h m m N M M l ~ C n n + . $.$.O.O.O.O.O.O.O.O.O.O.",
"O.O.$.$.O.O.O.O.O.O.O.O.3 1 . d i i h h n h n h h h s = d d n h n h n x b r y h M M M M M h N s r n +   $.$.O.O.O.O.O.O.O.O.O.O.",
"O.O.O.O.O.O.O.O.O.O.3 3 3 1 . @ @ @ % % % % % @ % % @ @ % * % % % % % % % @ % % + % % % % % % @ + % .   O.O.O.O.O.O.O.O.O.O.O.O.",
"O.O.O.O.O.O.O.O.O.O.3 3 3 3 3 3 O.O.O.O.O.O.O.O.O.O.O.+.O.O.O.O.O.O.O.O.O.O.O.+.3 3 3 3 3 3 O.O.O.O.O.O.O.O.O.O.O.O.O.O.O.O.O.O."
};
